<svg id="visual" viewBox="0 0 2500 200" width="2500" height="200" xmlns="http://www.w3.org/2000/svg" xmlns:xlink="http://www.w3.org/1999/xlink" version="1.1"><rect x="0" y="0" width="2500" height="200" fill="#fffce3"></rect><path d="M0 41L34.7 42.8C69.3 44.7 138.7 48.3 208.2 48.3C277.7 48.3 347.3 44.7 416.8 44C486.3 43.3 555.7 45.7 625 47C694.3 48.3 763.7 48.7 833.2 48C902.7 47.3 972.3 45.7 1041.8 43.8C1111.3 42 1180.7 40 1250 41C1319.3 42 1388.7 46 1458.2 46.7C1527.7 47.3 1597.3 44.7 1666.8 44.2C1736.3 43.7 1805.7 45.3 1875 45C1944.3 44.7 2013.7 42.3 2083.2 41.7C2152.7 41 2222.3 42 2291.8 42.7C2361.3 43.3 2430.7 43.7 2465.3 43.8L2500 44L2500 0L2465.3 0C2430.7 0 2361.3 0 2291.8 0C2222.3 0 2152.7 0 2083.2 0C2013.7 0 1944.3 0 1875 0C1805.7 0 1736.3 0 1666.8 0C1597.3 0 1527.7 0 1458.2 0C1388.7 0 1319.3 0 1250 0C1180.7 0 1111.3 0 1041.8 0C972.3 0 902.7 0 833.2 0C763.7 0 694.3 0 625 0C555.7 0 486.3 0 416.8 0C347.3 0 277.7 0 208.2 0C138.7 0 69.3 0 34.7 0L0 0Z" fill="#af31de"></path><path d="M0 27L34.7 26.8C69.3 26.7 138.7 26.3 208.2 26.7C277.7 27 347.3 28 416.8 29.7C486.3 31.3 555.7 33.7 625 35.7C694.3 37.7 763.7 39.3 833.2 38C902.7 36.7 972.3 32.3 1041.8 32C1111.3 31.7 1180.7 35.3 1250 35.5C1319.3 35.7 1388.7 32.3 1458.2 31.8C1527.7 31.3 1597.3 33.7 1666.8 33.8C1736.3 34 1805.7 32 1875 32.3C1944.3 32.7 2013.7 35.3 2083.2 34.3C2152.7 33.3 2222.3 28.7 2291.8 28.5C2361.3 28.3 2430.7 32.7 2465.3 34.8L2500 37L2500 0L2465.3 0C2430.7 0 2361.3 0 2291.8 0C2222.3 0 2152.7 0 2083.2 0C2013.7 0 1944.3 0 1875 0C1805.7 0 1736.3 0 1666.8 0C1597.3 0 1527.7 0 1458.2 0C1388.7 0 1319.3 0 1250 0C1180.7 0 1111.3 0 1041.8 0C972.3 0 902.7 0 833.2 0C763.7 0 694.3 0 625 0C555.7 0 486.3 0 416.8 0C347.3 0 277.7 0 208.2 0C138.7 0 69.3 0 34.7 0L0 0Z" fill="#8420bc"></path><path d="M0 27L34.7 25.5C69.3 24 138.7 21 208.2 19C277.7 17 347.3 16 416.8 17.3C486.3 18.7 555.7 22.3 625 24.3C694.3 26.3 763.7 26.7 833.2 25.2C902.7 23.7 972.3 20.3 1041.8 18.5C1111.3 16.7 1180.7 16.3 1250 15.8C1319.3 15.3 1388.7 14.7 1458.2 14.5C1527.7 14.3 1597.3 14.7 1666.8 16C1736.3 17.3 1805.7 19.7 1875 22C1944.3 24.3 2013.7 26.7 2083.2 26.3C2152.7 26 2222.3 23 2291.8 22C2361.3 21 2430.7 22 2465.3 22.5L2500 23L2500 0L2465.3 0C2430.7 0 2361.3 0 2291.8 0C2222.3 0 2152.7 0 2083.2 0C2013.7 0 1944.3 0 1875 0C1805.7 0 1736.3 0 1666.8 0C1597.3 0 1527.7 0 1458.2 0C1388.7 0 1319.3 0 1250 0C1180.7 0 1111.3 0 1041.8 0C972.3 0 902.7 0 833.2 0C763.7 0 694.3 0 625 0C555.7 0 486.3 0 416.8 0C347.3 0 277.7 0 208.2 0C138.7 0 69.3 0 34.7 0L0 0Z" fill="#5c0f9a"></path><path d="M0 8L34.7 9.7C69.3 11.3 138.7 14.7 208.2 15.7C277.7 16.7 347.3 15.3 416.8 14C486.3 12.7 555.7 11.3 625 9.7C694.3 8 763.7 6 833.2 5.5C902.7 5 972.3 6 1041.8 8C1111.3 10 1180.7 13 1250 12.8C1319.3 12.7 1388.7 9.3 1458.2 8.7C1527.7 8 1597.3 10 1666.8 11C1736.3 12 1805.7 12 1875 11.2C1944.3 10.3 2013.7 8.7 2083.2 8.2C2152.7 7.7 2222.3 8.3 2291.8 8.8C2361.3 9.3 2430.7 9.7 2465.3 9.8L2500 10L2500 0L2465.3 0C2430.7 0 2361.3 0 2291.8 0C2222.3 0 2152.7 0 2083.2 0C2013.7 0 1944.3 0 1875 0C1805.7 0 1736.3 0 1666.8 0C1597.3 0 1527.7 0 1458.2 0C1388.7 0 1319.3 0 1250 0C1180.7 0 1111.3 0 1041.8 0C972.3 0 902.7 0 833.2 0C763.7 0 694.3 0 625 0C555.7 0 486.3 0 416.8 0C347.3 0 277.7 0 208.2 0C138.7 0 69.3 0 34.7 0L0 0Z" fill="#360078"></path></svg>