<svg id="visual" viewBox="0 0 960 300" width="960" height="300" xmlns="http://www.w3.org/2000/svg" xmlns:xlink="http://www.w3.org/1999/xlink" version="1.1"><rect x="0" y="0" width="960" height="300" fill="#fffce3"></rect><path d="M0 102L22.8 100.3C45.7 98.7 91.3 95.3 137 91.3C182.7 87.3 228.3 82.7 274 84C319.7 85.3 365.3 92.7 411.2 96.3C457 100 503 100 548.8 102.8C594.7 105.7 640.3 111.3 686 110.2C731.7 109 777.3 101 823 101.8C868.7 102.7 914.3 112.3 937.2 117.2L960 122L960 0L937.2 0C914.3 0 868.7 0 823 0C777.3 0 731.7 0 686 0C640.3 0 594.7 0 548.8 0C503 0 457 0 411.2 0C365.3 0 319.7 0 274 0C228.3 0 182.7 0 137 0C91.3 0 45.7 0 22.8 0L0 0Z" fill="#c62368"></path><path d="M0 90L22.8 86.7C45.7 83.3 91.3 76.7 137 71.8C182.7 67 228.3 64 274 64.2C319.7 64.3 365.3 67.7 411.2 73.7C457 79.7 503 88.3 548.8 87.7C594.7 87 640.3 77 686 77.2C731.7 77.3 777.3 87.7 823 91.2C868.7 94.7 914.3 91.3 937.2 89.7L960 88L960 0L937.2 0C914.3 0 868.7 0 823 0C777.3 0 731.7 0 686 0C640.3 0 594.7 0 548.8 0C503 0 457 0 411.2 0C365.3 0 319.7 0 274 0C228.3 0 182.7 0 137 0C91.3 0 45.7 0 22.8 0L0 0Z" fill="#dc2f59"></path><path d="M0 45L22.8 48.8C45.7 52.7 91.3 60.3 137 61.2C182.7 62 228.3 56 274 53C319.7 50 365.3 50 411.2 54.5C457 59 503 68 548.8 70.7C594.7 73.3 640.3 69.7 686 65.3C731.7 61 777.3 56 823 52.2C868.7 48.3 914.3 45.7 937.2 44.3L960 43L960 0L937.2 0C914.3 0 868.7 0 823 0C777.3 0 731.7 0 686 0C640.3 0 594.7 0 548.8 0C503 0 457 0 411.2 0C365.3 0 319.7 0 274 0C228.3 0 182.7 0 137 0C91.3 0 45.7 0 22.8 0L0 0Z" fill="#ec4347"></path><path d="M0 57L22.8 56.7C45.7 56.3 91.3 55.7 137 54.5C182.7 53.3 228.3 51.7 274 51.8C319.7 52 365.3 54 411.2 50.8C457 47.7 503 39.3 548.8 38.8C594.7 38.3 640.3 45.7 686 45.7C731.7 45.7 777.3 38.3 823 36.8C868.7 35.3 914.3 39.7 937.2 41.8L960 44L960 0L937.2 0C914.3 0 868.7 0 823 0C777.3 0 731.7 0 686 0C640.3 0 594.7 0 548.8 0C503 0 457 0 411.2 0C365.3 0 319.7 0 274 0C228.3 0 182.7 0 137 0C91.3 0 45.7 0 22.8 0L0 0Z" fill="#f55c31"></path><path d="M0 35L22.8 34.8C45.7 34.7 91.3 34.3 137 30.7C182.7 27 228.3 20 274 18.7C319.7 17.3 365.3 21.7 411.2 24.3C457 27 503 28 548.8 29.2C594.7 30.3 640.3 31.7 686 28.8C731.7 26 777.3 19 823 17.5C868.7 16 914.3 20 937.2 22L960 24L960 0L937.2 0C914.3 0 868.7 0 823 0C777.3 0 731.7 0 686 0C640.3 0 594.7 0 548.8 0C503 0 457 0 411.2 0C365.3 0 319.7 0 274 0C228.3 0 182.7 0 137 0C91.3 0 45.7 0 22.8 0L0 0Z" fill="#f7770f"></path></svg>