<svg id="visual" viewBox="0 0 960 200" width="960" height="200" xmlns="http://www.w3.org/2000/svg" xmlns:xlink="http://www.w3.org/1999/xlink" version="1.1"><rect x="0" y="0" width="960" height="200" fill="#fffce3"></rect><path d="M0 51L16 51.5C32 52 64 53 96 54.3C128 55.7 160 57.3 192 56.3C224 55.3 256 51.7 288 53C320 54.3 352 60.7 384 61.2C416 61.7 448 56.3 480 55.5C512 54.7 544 58.3 576 59.3C608 60.3 640 58.7 672 60C704 61.3 736 65.7 768 66C800 66.3 832 62.7 864 60.5C896 58.3 928 57.7 944 57.3L960 57L960 0L944 0C928 0 896 0 864 0C832 0 800 0 768 0C736 0 704 0 672 0C640 0 608 0 576 0C544 0 512 0 480 0C448 0 416 0 384 0C352 0 320 0 288 0C256 0 224 0 192 0C160 0 128 0 96 0C64 0 32 0 16 0L0 0Z" fill="#af31de"></path><path d="M0 39L16 41.2C32 43.3 64 47.7 96 50.3C128 53 160 54 192 53.2C224 52.3 256 49.7 288 46.7C320 43.7 352 40.3 384 39.7C416 39 448 41 480 41.7C512 42.3 544 41.7 576 43.5C608 45.3 640 49.7 672 50C704 50.3 736 46.7 768 44.7C800 42.7 832 42.3 864 42.2C896 42 928 42 944 42L960 42L960 0L944 0C928 0 896 0 864 0C832 0 800 0 768 0C736 0 704 0 672 0C640 0 608 0 576 0C544 0 512 0 480 0C448 0 416 0 384 0C352 0 320 0 288 0C256 0 224 0 192 0C160 0 128 0 96 0C64 0 32 0 16 0L0 0Z" fill="#8420bc"></path><path d="M0 26L16 25.5C32 25 64 24 96 24.2C128 24.3 160 25.7 192 26.7C224 27.7 256 28.3 288 29C320 29.7 352 30.3 384 31.5C416 32.7 448 34.3 480 33.7C512 33 544 30 576 29.3C608 28.7 640 30.3 672 31.2C704 32 736 32 768 30.8C800 29.7 832 27.3 864 25.8C896 24.3 928 23.7 944 23.3L960 23L960 0L944 0C928 0 896 0 864 0C832 0 800 0 768 0C736 0 704 0 672 0C640 0 608 0 576 0C544 0 512 0 480 0C448 0 416 0 384 0C352 0 320 0 288 0C256 0 224 0 192 0C160 0 128 0 96 0C64 0 32 0 16 0L0 0Z" fill="#5c0f9a"></path><path d="M0 22L16 19.5C32 17 64 12 96 11C128 10 160 13 192 14.7C224 16.3 256 16.7 288 15.7C320 14.7 352 12.3 384 12.5C416 12.7 448 15.3 480 15.7C512 16 544 14 576 13.5C608 13 640 14 672 13.2C704 12.3 736 9.7 768 11.2C800 12.7 832 18.3 864 19.5C896 20.7 928 17.3 944 15.7L960 14L960 0L944 0C928 0 896 0 864 0C832 0 800 0 768 0C736 0 704 0 672 0C640 0 608 0 576 0C544 0 512 0 480 0C448 0 416 0 384 0C352 0 320 0 288 0C256 0 224 0 192 0C160 0 128 0 96 0C64 0 32 0 16 0L0 0Z" fill="#360078"></path></svg>